G04 #@! TF.GenerationSoftware,KiCad,Pcbnew,(2017-06-08 revision 33e0758)-master*
G04 #@! TF.CreationDate,2017-06-14T10:18:04-04:00*
G04 #@! TF.ProjectId,attempt-2,617474656D70742D322E6B696361645F,rev?*
G04 #@! TF.FileFunction,Copper,L1,Top,Signal*
G04 #@! TF.FilePolarity,Positive*
%FSLAX46Y46*%
G04 Gerber Fmt 4.6, Leading zero omitted, Abs format (unit mm)*
G04 Created by KiCad (PCBNEW (2017-06-08 revision 33e0758)-master) date Wednesday, June 14, 2017 'AMt' 10:18:04 AM*
%MOMM*%
%LPD*%
G01*
G04 APERTURE LIST*
%ADD10C,0.100000*%
%ADD11C,1.524000*%
%ADD12R,1.250000X1.000000*%
%ADD13R,1.000000X1.250000*%
%ADD14C,2.400000*%
%ADD15C,2.500000*%
%ADD16R,1.700000X1.700000*%
%ADD17R,1.300000X0.700000*%
%ADD18R,0.700000X1.300000*%
%ADD19C,1.900000*%
%ADD20R,0.600000X1.550000*%
%ADD21R,1.550000X0.600000*%
%ADD22C,1.200000*%
%ADD23C,0.250000*%
G04 APERTURE END LIST*
D10*
D11*
X247650000Y-78740000D03*
X232410000Y-78740000D03*
X232410000Y-73660000D03*
X247650000Y-73660000D03*
X247650000Y-55860000D03*
X247650000Y-50780000D03*
X232410000Y-38080000D03*
D12*
X225425000Y-53435000D03*
X225425000Y-51435000D03*
D13*
X242575776Y-54481318D03*
X240575776Y-54481318D03*
D12*
X229870000Y-57420000D03*
X229870000Y-59420000D03*
X242570000Y-65675000D03*
X242570000Y-67675000D03*
D13*
X231140000Y-45085000D03*
X229140000Y-45085000D03*
D14*
X247650000Y-37465000D03*
D15*
X245110000Y-34925000D03*
X250190000Y-34925000D03*
X250190000Y-40005000D03*
X245110000Y-40005000D03*
D16*
X232410000Y-73660000D03*
X247650000Y-73660000D03*
X247650000Y-78740000D03*
D17*
X247965000Y-67625000D03*
X247965000Y-65725000D03*
X220980000Y-47940000D03*
X220980000Y-46040000D03*
X220980000Y-51755000D03*
X220980000Y-53655000D03*
D18*
X242845776Y-60196318D03*
X240945776Y-60196318D03*
X242250000Y-47625000D03*
X240350000Y-47625000D03*
D19*
X191770000Y-51435000D03*
X191770000Y-53975000D03*
X191770000Y-56515000D03*
X201930000Y-76835000D03*
X199390000Y-76835000D03*
X196850000Y-76835000D03*
X191770000Y-76835000D03*
X194310000Y-76835000D03*
X204470000Y-46355000D03*
X204470000Y-48895000D03*
X204470000Y-51435000D03*
X204470000Y-53975000D03*
X204470000Y-56515000D03*
X204470000Y-59055000D03*
X204470000Y-61595000D03*
X204470000Y-64135000D03*
X204470000Y-66675000D03*
X204470000Y-69215000D03*
X204470000Y-71755000D03*
X204470000Y-74295000D03*
X204470000Y-76835000D03*
X189230000Y-76835000D03*
X189230000Y-74295000D03*
X189230000Y-71755000D03*
X189230000Y-69215000D03*
X189230000Y-66675000D03*
X189230000Y-64135000D03*
X189230000Y-61595000D03*
X189230000Y-59055000D03*
X189230000Y-56515000D03*
X189230000Y-53975000D03*
X189230000Y-51435000D03*
X189230000Y-48895000D03*
X189230000Y-46355000D03*
X189230000Y-43815000D03*
X204470000Y-43815000D03*
D20*
X233045000Y-48100000D03*
X234315000Y-48100000D03*
X235585000Y-48100000D03*
X236855000Y-48100000D03*
X236855000Y-53500000D03*
X235585000Y-53500000D03*
X234315000Y-53500000D03*
X233045000Y-53500000D03*
D21*
X220025000Y-59690000D03*
X220025000Y-60960000D03*
X220025000Y-62230000D03*
X220025000Y-63500000D03*
X225425000Y-63500000D03*
X225425000Y-62230000D03*
X225425000Y-60960000D03*
X225425000Y-59690000D03*
D22*
X224155000Y-47625000D03*
X218440000Y-47625000D03*
X229235000Y-49530000D03*
X225425000Y-38735000D03*
X242570000Y-50800000D03*
X241300000Y-40640000D03*
X245745000Y-59055000D03*
X234315000Y-59055000D03*
D23*
X204470000Y-43815000D02*
X207010000Y-43815000D01*
X207010000Y-43815000D02*
X224155000Y-60960000D01*
X224155000Y-60960000D02*
X225425000Y-60960000D01*
X224155000Y-47625000D02*
X229475000Y-47625000D01*
X229475000Y-47625000D02*
X231140000Y-45960000D01*
X231140000Y-45960000D02*
X231140000Y-45085000D01*
X225425000Y-53435000D02*
X226300000Y-53435000D01*
X231775000Y-59420000D02*
X229870000Y-59420000D01*
X226300000Y-53435000D02*
X228745000Y-55880000D01*
X228745000Y-55880000D02*
X231140000Y-55880000D01*
X231140000Y-55880000D02*
X231775000Y-56515000D01*
X231775000Y-56515000D02*
X231775000Y-59420000D01*
X231140000Y-44960000D02*
X231140000Y-45085000D01*
X242570000Y-67675000D02*
X239760000Y-67675000D01*
X239760000Y-67675000D02*
X235730000Y-63645000D01*
X235730000Y-63645000D02*
X235730000Y-60960000D01*
X229870000Y-60960000D02*
X235730000Y-60960000D01*
X225425000Y-60960000D02*
X229870000Y-60960000D01*
X229870000Y-60960000D02*
X229870000Y-59420000D01*
X235730000Y-60960000D02*
X235585000Y-60815000D01*
X220980000Y-53655000D02*
X220680000Y-53655000D01*
X220680000Y-53655000D02*
X218440000Y-51415000D01*
X218440000Y-51415000D02*
X218440000Y-47625000D01*
X225425000Y-53435000D02*
X221200000Y-53435000D01*
X221200000Y-53435000D02*
X220980000Y-53655000D01*
X235585000Y-60815000D02*
X235585000Y-54525000D01*
X235585000Y-54525000D02*
X235585000Y-53500000D01*
X242570000Y-67675000D02*
X247915000Y-67675000D01*
X247915000Y-67675000D02*
X247965000Y-67625000D01*
X242570000Y-67675000D02*
X242570000Y-68425000D01*
X247650000Y-73660000D02*
X247650000Y-67940000D01*
X247650000Y-67940000D02*
X247965000Y-67625000D01*
X229235000Y-53500000D02*
X227965000Y-53500000D01*
X227965000Y-52070000D02*
X227330000Y-51435000D01*
X227965000Y-53500000D02*
X227965000Y-52070000D01*
X227330000Y-51435000D02*
X225425000Y-51435000D01*
X233045000Y-53500000D02*
X229235000Y-53500000D01*
X229235000Y-49530000D02*
X229235000Y-53500000D01*
X203409326Y-38735000D02*
X225425000Y-38735000D01*
X199390000Y-48895000D02*
X199390000Y-42754326D01*
X199390000Y-42754326D02*
X203409326Y-38735000D01*
X191770000Y-56515000D02*
X199390000Y-48895000D01*
X220980000Y-51755000D02*
X220980000Y-47940000D01*
X225425000Y-51435000D02*
X221300000Y-51435000D01*
X221300000Y-51435000D02*
X220980000Y-51755000D01*
X242575776Y-54481318D02*
X242575776Y-53345776D01*
X240350000Y-51120000D02*
X240350000Y-47625000D01*
X242575776Y-53345776D02*
X240350000Y-51120000D01*
X240350000Y-47925000D02*
X240350000Y-47625000D01*
X237210000Y-50165000D02*
X234085000Y-50165000D01*
X234085000Y-50165000D02*
X233045000Y-49125000D01*
X233045000Y-49125000D02*
X233045000Y-48100000D01*
X239750000Y-47625000D02*
X237210000Y-50165000D01*
X240350000Y-47625000D02*
X239750000Y-47625000D01*
X242845776Y-60196318D02*
X242845776Y-54751318D01*
X242845776Y-54751318D02*
X242575776Y-54481318D01*
X240575776Y-54481318D02*
X238888682Y-54481318D01*
X240575776Y-54481318D02*
X240575776Y-59826318D01*
X238888682Y-54481318D02*
X238760000Y-54610000D01*
X238760000Y-54610000D02*
X237965000Y-54610000D01*
X237965000Y-54610000D02*
X236855000Y-53500000D01*
X243169999Y-51399999D02*
X242570000Y-50800000D01*
X240030000Y-62230000D02*
X243205000Y-62230000D01*
X243205000Y-62230000D02*
X244475000Y-60960000D01*
X236855000Y-59055000D02*
X240030000Y-62230000D01*
X244475000Y-52705000D02*
X243169999Y-51399999D01*
X236855000Y-53500000D02*
X236855000Y-59055000D01*
X244475000Y-60960000D02*
X244475000Y-52705000D01*
X232111265Y-36142989D02*
X236802989Y-36142989D01*
X236802989Y-36142989D02*
X241300000Y-40640000D01*
X231379223Y-36875031D02*
X232111265Y-36142989D01*
X197454979Y-48290021D02*
X197454980Y-42641512D01*
X197454980Y-42641512D02*
X203221461Y-36875031D01*
X203221461Y-36875031D02*
X231379223Y-36875031D01*
X191770000Y-53975000D02*
X197454979Y-48290021D01*
X240575776Y-59826318D02*
X240945776Y-60196318D01*
X232444999Y-43934999D02*
X234950000Y-46440000D01*
X234950000Y-46440000D02*
X235585000Y-47075000D01*
X189230000Y-48895000D02*
X203200000Y-34925000D01*
X203200000Y-34925000D02*
X229235000Y-34925000D01*
X237490000Y-34290000D02*
X242570000Y-39370000D01*
X242570000Y-43815000D02*
X237575000Y-43815000D01*
X229235000Y-34925000D02*
X229870000Y-34290000D01*
X229870000Y-34290000D02*
X237490000Y-34290000D01*
X242570000Y-39370000D02*
X242570000Y-43815000D01*
X237575000Y-43815000D02*
X234950000Y-46440000D01*
X227965000Y-58420000D02*
X226695000Y-58420000D01*
X226695000Y-58420000D02*
X224155000Y-55880000D01*
X224155000Y-55880000D02*
X220345000Y-55880000D01*
X220345000Y-55880000D02*
X215265000Y-50800000D01*
X217170000Y-44450000D02*
X219990000Y-44450000D01*
X215265000Y-50800000D02*
X215265000Y-46355000D01*
X220980000Y-45440000D02*
X220980000Y-46040000D01*
X215265000Y-46355000D02*
X217170000Y-44450000D01*
X219990000Y-44450000D02*
X220980000Y-45440000D01*
X229140000Y-45085000D02*
X229140000Y-44210000D01*
X229140000Y-44210000D02*
X230170000Y-43180000D01*
X230170000Y-43180000D02*
X231690000Y-43180000D01*
X231690000Y-43180000D02*
X232444999Y-43934999D01*
X227965000Y-58420000D02*
X228965000Y-57420000D01*
X226695000Y-59690000D02*
X227965000Y-58420000D01*
X225425000Y-59690000D02*
X226695000Y-59690000D01*
X228965000Y-57420000D02*
X229870000Y-57420000D01*
X235585000Y-47075000D02*
X235585000Y-48100000D01*
X225425000Y-59690000D02*
X224950000Y-59690000D01*
X220755009Y-46264991D02*
X220980000Y-46040000D01*
X220980000Y-46040000D02*
X228310000Y-46040000D01*
X228310000Y-46040000D02*
X229140000Y-45210000D01*
X229140000Y-45210000D02*
X229140000Y-45085000D01*
X234315000Y-53500000D02*
X234315000Y-51314252D01*
X234315000Y-51314252D02*
X233915758Y-50915010D01*
X233915758Y-50915010D02*
X232525010Y-50915010D01*
X232525010Y-50915010D02*
X231775000Y-50165000D01*
X233945001Y-46799999D02*
X234039999Y-46799999D01*
X234039999Y-46799999D02*
X234315000Y-47075000D01*
X234315000Y-47075000D02*
X234315000Y-48100000D01*
X231775000Y-50165000D02*
X231775000Y-47169998D01*
X231775000Y-47169998D02*
X232589998Y-46355000D01*
X232589998Y-46355000D02*
X233500002Y-46355000D01*
X233500002Y-46355000D02*
X233945001Y-46799999D01*
X247650000Y-58420000D02*
X247650000Y-59055000D01*
X247650000Y-65310000D02*
X247650000Y-58420000D01*
X247650000Y-58420000D02*
X247650000Y-54610000D01*
X247650000Y-55860000D02*
X247650000Y-56937630D01*
X247650000Y-56937630D02*
X247650000Y-58420000D01*
X245745000Y-59055000D02*
X247650000Y-59055000D01*
X234315000Y-53500000D02*
X234315000Y-59055000D01*
X234315000Y-53500000D02*
X234315000Y-52475000D01*
X250190000Y-34925000D02*
X250190000Y-40005000D01*
X247650000Y-54610000D02*
X247650000Y-53340000D01*
X247650000Y-54610000D02*
X247650000Y-55860000D01*
X245110000Y-40005000D02*
X245110000Y-34925000D01*
X250190000Y-34925000D02*
X245110000Y-34925000D01*
X247650000Y-53340000D02*
X250190000Y-50800000D01*
X250190000Y-50800000D02*
X250190000Y-40005000D01*
X248015000Y-65675000D02*
X247650000Y-65310000D01*
X242570000Y-65675000D02*
X248015000Y-65675000D01*
X242250000Y-47625000D02*
X244495000Y-47625000D01*
X244495000Y-47625000D02*
X247650000Y-50780000D01*
X247650000Y-37465000D02*
X247650000Y-50780000D01*
X225425000Y-63500000D02*
X225900000Y-63500000D01*
X232410000Y-72560000D02*
X232410000Y-73660000D01*
X225900000Y-63500000D02*
X232410000Y-70010000D01*
X232410000Y-70010000D02*
X232410000Y-72560000D01*
X204470000Y-51435000D02*
X201295000Y-48260000D01*
X201295000Y-43180000D02*
X203444957Y-41030043D01*
X231648001Y-38841999D02*
X232410000Y-38080000D01*
X201295000Y-48260000D02*
X201295000Y-43180000D01*
X203444957Y-41030043D02*
X229459957Y-41030043D01*
X229459957Y-41030043D02*
X231648001Y-38841999D01*
X204470000Y-59055000D02*
X205105000Y-59690000D01*
X205105000Y-59690000D02*
X219710000Y-59690000D01*
X219710000Y-59690000D02*
X220025000Y-59690000D01*
X204470000Y-74295000D02*
X216535000Y-62230000D01*
X216535000Y-62230000D02*
X220025000Y-62230000D01*
X220025000Y-60960000D02*
X220775002Y-60960000D01*
X220775002Y-60960000D02*
X222250000Y-62434998D01*
X222250000Y-62434998D02*
X222250000Y-64770000D01*
X222250000Y-64770000D02*
X207645000Y-79375000D01*
X207645000Y-79375000D02*
X191770000Y-79375000D01*
X191770000Y-79375000D02*
X190179999Y-77784999D01*
X190179999Y-77784999D02*
X189230000Y-76835000D01*
X225425000Y-62230000D02*
X226450000Y-62230000D01*
X226450000Y-62230000D02*
X235585000Y-71365000D01*
X235585000Y-71365000D02*
X235585000Y-75565000D01*
X235585000Y-75565000D02*
X232410000Y-78740000D01*
X189230000Y-74295000D02*
X186690000Y-76835000D01*
X186690000Y-76835000D02*
X186690000Y-78740000D01*
X186690000Y-78740000D02*
X188595000Y-80645000D01*
X188595000Y-80645000D02*
X230505000Y-80645000D01*
X230505000Y-80645000D02*
X232410000Y-78740000D01*
M02*
