G04 #@! TF.GenerationSoftware,KiCad,Pcbnew,(2017-06-08 revision 33e0758)-master*
G04 #@! TF.CreationDate,2017-06-14T10:18:05-04:00*
G04 #@! TF.ProjectId,attempt-2,617474656D70742D322E6B696361645F,rev?*
G04 #@! TF.FileFunction,Copper,L2,Bot,Signal*
G04 #@! TF.FilePolarity,Positive*
%FSLAX46Y46*%
G04 Gerber Fmt 4.6, Leading zero omitted, Abs format (unit mm)*
G04 Created by KiCad (PCBNEW (2017-06-08 revision 33e0758)-master) date Wednesday, June 14, 2017 'AMt' 10:18:05 AM*
%MOMM*%
%LPD*%
G01*
G04 APERTURE LIST*
%ADD10C,0.100000*%
%ADD11C,1.524000*%
%ADD12C,2.400000*%
%ADD13C,2.500000*%
%ADD14R,1.700000X1.700000*%
%ADD15C,1.900000*%
%ADD16C,1.200000*%
%ADD17C,0.250000*%
G04 APERTURE END LIST*
D10*
D11*
X247650000Y-78740000D03*
X232410000Y-78740000D03*
X232410000Y-73660000D03*
X247650000Y-73660000D03*
X247650000Y-55860000D03*
X247650000Y-50780000D03*
X232410000Y-38080000D03*
D12*
X247650000Y-37465000D03*
D13*
X245110000Y-34925000D03*
X250190000Y-34925000D03*
X250190000Y-40005000D03*
X245110000Y-40005000D03*
D14*
X232410000Y-73660000D03*
X247650000Y-73660000D03*
X247650000Y-78740000D03*
D15*
X191770000Y-51435000D03*
X191770000Y-53975000D03*
X191770000Y-56515000D03*
X201930000Y-76835000D03*
X199390000Y-76835000D03*
X196850000Y-76835000D03*
X191770000Y-76835000D03*
X194310000Y-76835000D03*
X204470000Y-46355000D03*
X204470000Y-48895000D03*
X204470000Y-51435000D03*
X204470000Y-53975000D03*
X204470000Y-56515000D03*
X204470000Y-59055000D03*
X204470000Y-61595000D03*
X204470000Y-64135000D03*
X204470000Y-66675000D03*
X204470000Y-69215000D03*
X204470000Y-71755000D03*
X204470000Y-74295000D03*
X204470000Y-76835000D03*
X189230000Y-76835000D03*
X189230000Y-74295000D03*
X189230000Y-71755000D03*
X189230000Y-69215000D03*
X189230000Y-66675000D03*
X189230000Y-64135000D03*
X189230000Y-61595000D03*
X189230000Y-59055000D03*
X189230000Y-56515000D03*
X189230000Y-53975000D03*
X189230000Y-51435000D03*
X189230000Y-48895000D03*
X189230000Y-46355000D03*
X189230000Y-43815000D03*
X204470000Y-43815000D03*
D16*
X224155000Y-47625000D03*
X218440000Y-47625000D03*
X229235000Y-49530000D03*
X225425000Y-38735000D03*
X242570000Y-50800000D03*
X241300000Y-40640000D03*
X245745000Y-59055000D03*
X234315000Y-59055000D03*
D17*
X218440000Y-47625000D02*
X224155000Y-47625000D01*
X225425000Y-45720000D02*
X229235000Y-49530000D01*
X225425000Y-38735000D02*
X225425000Y-45720000D01*
X241970001Y-50200001D02*
X242570000Y-50800000D01*
X241300000Y-40640000D02*
X241300000Y-49530000D01*
X241300000Y-49530000D02*
X241970001Y-50200001D01*
X234315000Y-59055000D02*
X245745000Y-59055000D01*
M02*
