M48
;DRILL file {KiCad (2017-06-08 revision 33e0758)-master} date Wednesday, June 14, 2017 'AMt' 10:18:20 AM
;FORMAT={-:-/ absolute / metric / decimal}
FMAT,2
METRIC,TZ
T1C0.700
T2C0.762
T3C1.000
T4C1.500
T5C1.600
%
G90
G05
M71
T1
X218.44Y-47.625
X224.155Y-47.625
X225.425Y-38.735
X229.235Y-49.53
X234.315Y-59.055
X241.3Y-40.64
X242.57Y-50.8
X245.745Y-59.055
T2
X232.41Y-38.08
X232.41Y-73.66
X232.41Y-78.74
X247.65Y-50.78
X247.65Y-55.86
X247.65Y-73.66
X247.65Y-78.74
T3
X232.41Y-73.66
X189.23Y-43.815
X189.23Y-46.355
X189.23Y-48.895
X189.23Y-51.435
X189.23Y-53.975
X189.23Y-56.515
X189.23Y-59.055
X189.23Y-61.595
X189.23Y-64.135
X189.23Y-66.675
X189.23Y-69.215
X189.23Y-71.755
X189.23Y-74.295
X189.23Y-76.835
X191.77Y-51.435
X191.77Y-53.975
X191.77Y-56.515
X191.77Y-76.835
X194.31Y-76.835
X196.85Y-76.835
X199.39Y-76.835
X201.93Y-76.835
X204.47Y-43.815
X204.47Y-46.355
X204.47Y-48.895
X204.47Y-51.435
X204.47Y-53.975
X204.47Y-56.515
X204.47Y-59.055
X204.47Y-61.595
X204.47Y-64.135
X204.47Y-66.675
X204.47Y-69.215
X204.47Y-71.755
X204.47Y-74.295
X204.47Y-76.835
X247.65Y-78.74
X247.65Y-73.66
T4
X247.65Y-37.465
T5
X245.11Y-34.925
X245.11Y-40.005
X250.19Y-34.925
X250.19Y-40.005
T0
M30
